<svg xmlns="http://www.w3.org/2000/svg" version="1.0" width="512.000000pt" height="512.000000pt" viewBox="0 0 512.000000 512.000000" preserveAspectRatio="xMidYMid meet">

<g transform="translate(0.000000,512.000000) scale(0.100000,-0.100000)" fill="#ffffff" stroke="none">
<path d="M2180 4789 c-29 -12 -67 -45 -83 -74 -7 -11 -14 -81 -17 -158 l-5 -138 -120 -40 c-66 -22 -175 -66 -242 -99 -68 -33 -126 -60 -130 -60 -5 0 -49 41 -98 90 -97 98 -134 116 -203 104 -32 -5 -73 -43 -300 -268 -281 -280 -291 -293 -276 -374 5 -29 27 -57 100 -133 52 -52 94 -98 94 -102 0 -4 -27 -63 -60 -131 -34 -67 -78 -176 -100 -242 l-39 -119 -140 -5 c-151 -5 -169 -11 -215 -74 -20 -27 -21 -39 -21 -406 0 -367 1 -379 21 -406 46 -63 64 -69 215 -74 l140 -5 39 -119 c22 -66 66 -175 100 -242 33 -68 60 -127 60 -131 0 -4 -42 -50 -94 -102 -73 -76 -95 -104 -100 -133 -15 -81 -5 -94 276 -374 227 -225 268 -263 300 -268 69 -12 106 6 203 104 49 49 93 90 98 90 4 0 62 -27 130 -60 67 -33 176 -77 242 -99 l120 -40 5 -140 c5 -151 11 -169 74 -215 27 -20 39 -21 406 -21 367 0 379 1 406 21 63 47 69 63 72 215 3 96 7 141 15 144 147 44 237 78 350 133 l137 66 98 -96 c76 -75 105 -97 134 -102 81 -15 94 -5 374 276 225 227 263 268 268 300 12 69 -6 106 -104 203 -49 49 -90 93 -90 98 0 4 27 63 60 131 34 67 78 176 100 242 l39 119 140 5 c151 5 169 11 215 74 20 27 21 39 21 406 0 367 -1 379 -21 406 -46 63 -64 69 -215 74 l-140 5 -39 119 c-22 66 -66 175 -100 242 -33 68 -60 127 -60 131 0 5 41 49 90 98 98 97 116 134 104 203 -5 32 -43 73 -268 300 -280 281 -293 291 -374 276 -29 -5 -58 -27 -134 -102 l-98 -96 -137 66 c-113 55 -203 89 -350 133 -8 3 -12 48 -15 144 -3 152 -9 168 -72 215 -26 20 -41 21 -394 23 -230 1 -376 -2 -392 -8z m1395 -1214 l25 -24 0 -991 0 -991 -25 -24 -24 -25 -991 0 -991 0 -24 25 -25 24 0 991 0 991 25 24 24 25 991 0 991 0 24 -25z" fill="#ffffff"/>
<path d="M1680 3175 l0 -266 316 -362 c174 -199 325 -371 335 -382 19 -19 24 -15 347 308 302 301 330 327 362 327 31 0 51 -17 217 -182 l183 -182 0 502 0 502 -880 0 -880 0 0 -265z m714 13 c86 -26 166 -136 166 -228 0 -92 -80 -202 -166 -228 -94 -28 -169 -8 -239 63 -102 101 -102 229 0 330 70 71 145 90 239 63z" fill="#ffffff"/>
<path d="M1680 2172 l0 -492 432 0 431 0 -20 23 c-11 12 -195 222 -408 467 -213 245 -398 456 -411 470 l-24 25 0 -493z" fill="#ffffff"/>
<path d="M2746 2311 l-289 -289 149 -171 149 -171 343 0 342 0 0 263 0 262 -198 198 c-108 108 -199 197 -202 197 -3 0 -135 -130 -294 -289z" fill="#ffffff"/>
</g>
</svg>