<svg width="40" height="40" viewBox="0 0 40 40" fill="none" xmlns="http://www.w3.org/2000/svg">
<path d="M31.3084 30.3309C30.81 28.7975 29.3725 27.6667 27.6667 27.6667H25.75V21.9167C25.75 21.4084 25.5481 20.9209 25.1887 20.5614C24.8292 20.202 24.3417 20 23.8334 20H12.3334V16.1667H16.1667C16.675 16.1667 17.1625 15.9648 17.522 15.6053C17.8814 15.2459 18.0834 14.7584 18.0834 14.25V10.4167H21.9167C22.9334 10.4167 23.9084 10.0128 24.6273 9.29395C25.3462 8.57506 25.75 7.60004 25.75 6.58337V5.79754C28.0433 6.72207 30.0783 8.18853 31.681 10.0714C33.2837 11.9542 34.4063 14.1974 34.9526 16.6089C35.499 19.0204 35.4528 21.5283 34.8182 23.9181C34.1835 26.3079 32.9792 28.5082 31.3084 30.3309ZM18.0834 35.1992C10.5125 34.26 4.66671 27.82 4.66671 20C4.66671 18.8117 4.82004 17.6617 5.06921 16.5692L14.25 25.75V27.6667C14.25 28.6834 14.6539 29.6584 15.3728 30.3773C16.0917 31.0962 17.0667 31.5 18.0834 31.5M20 0.833374C17.483 0.833374 14.9907 1.32913 12.6653 2.29235C10.3399 3.25556 8.22695 4.66737 6.44716 6.44716C2.85271 10.0416 0.833374 14.9167 0.833374 20C0.833374 25.0834 2.85271 29.9585 6.44716 33.5529C8.22695 35.3327 10.3399 36.7445 12.6653 37.7077C14.9907 38.6709 17.483 39.1667 20 39.1667C25.0834 39.1667 29.9585 37.1474 33.5529 33.5529C37.1474 29.9585 39.1667 25.0834 39.1667 20C39.1667 17.483 38.6709 14.9907 37.7077 12.6653C36.7445 10.3399 35.3327 8.22695 33.5529 6.44716C31.7731 4.66737 29.6602 3.25556 27.3348 2.29235C25.0094 1.32913 22.517 0.833374 20 0.833374Z" fill="white"/>
</svg>
