<svg width="42" height="42" viewBox="0 0 42 42" fill="none" xmlns="http://www.w3.org/2000/svg">
<path d="M33.075 35.525L23.275 25.725C22.4 26.425 21.3937 26.9792 20.2562 27.3875C19.1187 27.7958 17.9083 28 16.625 28C13.4458 28 10.7555 26.8993 8.554 24.6978C6.35133 22.4951 5.25 19.8042 5.25 16.625C5.25 13.4458 6.35133 10.7549 8.554 8.55225C10.7555 6.35075 13.4458 5.25 16.625 5.25C19.8042 5.25 22.4951 6.35075 24.6978 8.55225C26.8993 10.7549 28 13.4458 28 16.625C28 17.9083 27.7958 19.1187 27.3875 20.2562C26.9792 21.3937 26.425 22.4 25.725 23.275L35.5688 33.1187C35.8896 33.4396 36.05 33.8333 36.05 34.3C36.05 34.7667 35.875 35.175 35.525 35.525C35.2042 35.8458 34.7958 36.0063 34.3 36.0063C33.8042 36.0063 33.3958 35.8458 33.075 35.525ZM16.625 24.5C18.8125 24.5 20.6722 23.7347 22.204 22.204C23.7347 20.6722 24.5 18.8125 24.5 16.625C24.5 14.4375 23.7347 12.5778 22.204 11.046C20.6722 9.51533 18.8125 8.75 16.625 8.75C14.4375 8.75 12.5778 9.51533 11.046 11.046C9.51533 12.5778 8.75 14.4375 8.75 16.625C8.75 18.8125 9.51533 20.6722 11.046 22.204C12.5778 23.7347 14.4375 24.5 16.625 24.5Z" fill="black"/>
</svg>
