<svg width="46" height="46" viewBox="0 0 46 46" fill="none" xmlns="http://www.w3.org/2000/svg">
<path d="M34.3084 33.3308C33.81 31.7975 32.3725 30.6667 30.6667 30.6667H28.75V24.9167C28.75 24.4083 28.5481 23.9208 28.1887 23.5614C27.8292 23.2019 27.3417 23 26.8334 23H15.3334V19.1667H19.1667C19.675 19.1667 20.1625 18.9647 20.522 18.6053C20.8814 18.2458 21.0834 17.7583 21.0834 17.25V13.4167H24.9167C25.9334 13.4167 26.9084 13.0128 27.6273 12.2939C28.3462 11.575 28.75 10.6 28.75 9.58333V8.7975C31.0433 9.72203 33.0783 11.1885 34.681 13.0713C36.2837 14.9542 37.4063 17.1974 37.9526 19.6089C38.499 22.0203 38.4528 24.5283 37.8182 26.9181C37.1835 29.3078 35.9792 31.5082 34.3084 33.3308M21.0834 38.1992C13.5125 37.26 7.66671 30.82 7.66671 23C7.66671 21.8117 7.82004 20.6617 8.06921 19.5692L17.25 28.75V30.6667C17.25 31.6833 17.6539 32.6583 18.3728 33.3772C19.0917 34.0961 20.0667 34.5 21.0834 34.5M23 3.83333C20.483 3.83333 17.9907 4.32909 15.6653 5.2923C13.3399 6.25552 11.227 7.66733 9.44716 9.44711C5.85271 13.0416 3.83337 17.9167 3.83337 23C3.83337 28.0833 5.85271 32.9584 9.44716 36.5529C11.227 38.3327 13.3399 39.7445 15.6653 40.7077C17.9907 41.6709 20.483 42.1667 23 42.1667C28.0834 42.1667 32.9585 40.1473 36.5529 36.5529C40.1474 32.9584 42.1667 28.0833 42.1667 23C42.1667 20.483 41.6709 17.9906 40.7077 15.6652C39.7445 13.3398 38.3327 11.2269 36.5529 9.44711C34.7731 7.66733 32.6602 6.25552 30.3348 5.2923C28.0094 4.32909 25.517 3.83333 23 3.83333V3.83333Z" fill="white"/>
</svg>
